<svg id="Layer_1" data-name="Layer 1" xmlns="http://www.w3.org/2000/svg" viewBox="0 0 800 800"><defs><style>.cls-1{fill:#16ace3;stroke:#0aace4;stroke-miterlimit:10;stroke-width:9.65px;}</style></defs><title>JHAC.Icons</title><path class="cls-1" d="M446.5,244.66a9.26,9.26,0,1,0,9.3,9.25A9.28,9.28,0,0,0,446.5,244.66Z"/><path class="cls-1" d="M353.5,244.66a9.26,9.26,0,1,0,9.3,9.25A9.28,9.28,0,0,0,353.5,244.66Z"/><path class="cls-1" d="M601.93,444.45a73.74,73.74,0,0,0,12-39.68A64.15,64.15,0,0,0,590.34,355a62.18,62.18,0,0,0,5-24.31,69,69,0,0,0-37.59-61,55.49,55.49,0,0,0-42.34-60.53c-10.69-24.59-34.48-41.35-59.57-41.35-23.35,0-44.3,13.56-55.8,33.34-11.5-19.78-32.45-33.34-55.8-33.34-25.09,0-48.88,16.76-59.57,41.35a55.48,55.48,0,0,0-42.34,60.53,69,69,0,0,0-37.59,61,62.18,62.18,0,0,0,5,24.31,64.15,64.15,0,0,0-23.56,49.73,73.8,73.8,0,0,0,12,39.68,63.67,63.67,0,0,0,7.47,83c-6.39,38.4,24.39,77.26,64.26,77.26h.85a74.67,74.67,0,0,0,64.25,37c27.61,0,52.28-16.49,65.1-40.25,12.82,23.76,37.49,40.25,65.1,40.25a74.67,74.67,0,0,0,64.25-37h.85c35.29,0,65.1-30.94,65.1-67.56a58,58,0,0,0-.84-9.7,63.67,63.67,0,0,0,7.47-83ZM390.7,307.94a37.12,37.12,0,0,0-18.6-5,9.26,9.26,0,1,0,0,18.51A18.58,18.58,0,0,1,390.7,340V516a74.37,74.37,0,0,0-55.8-25.14,9.26,9.26,0,1,0,0,18.51,55.73,55.73,0,0,1,55.8,55.53c0,31.6-25.55,58.3-55.8,58.3a56,56,0,0,1-50.5-32.28,9.3,9.3,0,0,0-9.48-5.3l-2,.25c-26.47,3.6-56.27-26.22-48.21-59.59a9.24,9.24,0,0,0-3.09-9.28,46,46,0,0,1-17-35.4,45.35,45.35,0,0,1,6.82-23.81,62.93,62.93,0,0,0,39.68,14.56,9.26,9.26,0,1,0,0-18.51c-25.24,0-46.5-22.93-46.5-49.05a46,46,0,0,1,21.72-39,9.23,9.23,0,0,0,3.11-12.39,45.38,45.38,0,0,1-6.23-22.65c0-25,20.46-49.05,46.5-49.05,24.77,0,46.5,22.92,46.5,49.05a9.3,9.3,0,0,0,18.6,0c0-36.62-29.81-67.56-65.1-67.56a61.31,61.31,0,0,0-9.28.72c0-.24,0-.48,0-.72A37.24,37.24,0,0,1,324,237a9.33,9.33,0,0,0,13.15,0,9.22,9.22,0,0,0,0-13.08,55.5,55.5,0,0,0-30.85-15.6c8.2-12.12,21.84-22,37.89-22,24.77,0,46.5,22.92,46.5,49.05ZM548.8,472.33a63,63,0,0,0,39.68-14.56,45.35,45.35,0,0,1,6.82,23.81A46,46,0,0,1,578.35,517a9.24,9.24,0,0,0-3.09,9.28,45.75,45.75,0,0,1,1.44,10.85c0,28.73-26.11,51.94-49.65,48.74-.65-.09-1.31-.18-2-.25a9.3,9.3,0,0,0-9.48,5.3,56,56,0,0,1-50.5,32.28c-30.25,0-55.8-26.7-55.8-58.3a55.73,55.73,0,0,1,55.8-55.53,9.26,9.26,0,1,0,0-18.51A74.37,74.37,0,0,0,409.3,516V340a18.58,18.58,0,0,1,18.6-18.51,9.26,9.26,0,1,0,0-18.51,37.12,37.12,0,0,0-18.6,5V235.4c0-26.13,21.73-49.05,46.5-49.05,16.05,0,29.69,9.83,37.89,22a55.55,55.55,0,0,0-30.85,15.59,9.23,9.23,0,0,0,0,13.09A9.34,9.34,0,0,0,476,237a37.24,37.24,0,0,1,63.51,26.18c0,.24,0,.48,0,.72a61.31,61.31,0,0,0-9.28-.72c-35.29,0-65.1,30.94-65.1,67.56a9.3,9.3,0,0,0,18.6,0c0-26.13,21.73-49.05,46.5-49.05,26,0,46.5,24.06,46.5,49.05a45.38,45.38,0,0,1-6.23,22.65,9.23,9.23,0,0,0,3.11,12.39,46,46,0,0,1,21.72,39c0,26.22-21.33,49.05-46.5,49.05a9.26,9.26,0,1,0,0,18.51Z"/><path class="cls-1" d="M369.73,366a9.33,9.33,0,0,0-13.13-.73c-29.82,26.55-77.5,5.33-77.5-34.49a9.3,9.3,0,0,0-18.6,0A65,65,0,0,0,315,394.64,27.94,27.94,0,0,1,288.4,414a9.26,9.26,0,1,0,0,18.51A46.5,46.5,0,0,0,334.06,395,65.1,65.1,0,0,0,369,379,9.21,9.21,0,0,0,369.73,366Z"/><path class="cls-1" d="M269.8,527.86a9.26,9.26,0,1,0,0,18.51c24.77,0,46.5,22.92,46.5,49a9.3,9.3,0,0,0,18.6,0C334.9,558.8,305.09,527.86,269.8,527.86Z"/><path class="cls-1" d="M344.2,453.82A83.6,83.6,0,0,0,271.38,496a9.23,9.23,0,0,0,3.5,12.61,9.33,9.33,0,0,0,12.68-3.48,65,65,0,0,1,56.64-32.83,9.26,9.26,0,1,0,0-18.51Z"/><path class="cls-1" d="M511.6,414A27.94,27.94,0,0,1,485,394.64a65,65,0,0,0,54.5-63.91,9.3,9.3,0,0,0-18.6,0,46.55,46.55,0,0,1-77.5,34.49,9.33,9.33,0,0,0-13.13.73A9.21,9.21,0,0,0,431,379,65.1,65.1,0,0,0,465.94,395a46.5,46.5,0,0,0,45.66,37.58,9.26,9.26,0,1,0,0-18.51Z"/><path class="cls-1" d="M530.2,527.86c-35.29,0-65.1,30.94-65.1,67.56a9.3,9.3,0,0,0,18.6,0c0-26.13,21.73-49,46.5-49a9.26,9.26,0,1,0,0-18.51Z"/><path class="cls-1" d="M528.62,496a83.58,83.58,0,0,0-72.82-42.21,9.26,9.26,0,1,0,0,18.51,65,65,0,0,1,56.64,32.83A9.29,9.29,0,0,0,528.62,496Z"/></svg>