<?xml version="1.0" encoding="utf-8"?>
<!-- Generator: Adobe Illustrator 24.0.3, SVG Export Plug-In . SVG Version: 6.00 Build 0)  -->
<svg version="1.1" id="logo" xmlns="http://www.w3.org/2000/svg" xmlns:xlink="http://www.w3.org/1999/xlink" x="0px" y="0px"
	 viewBox="0 0 335.44 323.8" style="enable-background:new 0 0 335.44 323.8;" xml:space="preserve">
<style type="text/css">
	.st0{fill:#FFFFFF;}
</style>
<path class="st0" d="M278.82,201.01c0.38,0,0.69,0.31,0.69,0.69s-0.31,0.69-0.69,0.69H57.02c-0.38,0-0.69-0.31-0.69-0.69
	s0.31-0.69,0.69-0.69H278.82z M106.64,185.38l-2.6-3h-1.76v8.09h2.02v-5.05l2.18,2.54h0.31l2.18-2.54v5.05h2.02v-8.09h-1.76
	L106.64,185.38z M128.73,188.98h-3.95v-1.95h3.69v-1.48h-3.69v-1.7h3.87v-1.48h-5.88v8.09h5.97V188.98z M140.22,182.38v8.09h3.34
	c3.23,0,4.7-1.71,4.7-4.03c0-2.22-1.52-4.06-4.47-4.06H140.22z M142.24,183.86h1.29c1.91,0,2.66,1.17,2.66,2.56
	c0,1.19-0.61,2.56-2.63,2.56h-1.32V183.86z M161.79,182.38h-2.02v8.09h2.02V182.38z M181.15,188c-1.16,0.56-1.87,0.89-2.93,0.89
	c-1.68,0-2.88-1.03-2.88-2.48c0-1.44,1.21-2.46,2.93-2.46c1,0,1.9,0.33,2.79,0.83v-1.8c-0.79-0.47-1.8-0.71-2.93-0.71
	c-3.09,0-4.86,2.02-4.86,4.17c0,2.09,1.56,4.13,4.71,4.13c1.2,0,2.05-0.23,3.18-0.81V188z M194.81,182.38h-2.02v8.09h2.02V182.38z
	 M214.82,182.38h-2.02v4.95l-4.32-4.95h-1.85v8.09h2.02v-5.18l4.47,5.18h1.7V182.38z M232.59,188.98h-3.95v-1.95h3.69v-1.48h-3.69
	v-1.7h3.86v-1.48h-5.88v8.09h5.96V188.98z M63.24,168.44c0,4.53-1.45,7.35-3.12,7.35c-1.19,0-0.44-2.55-2.46-2.55
	c-1.06,0-1.72,0.75-1.72,1.85c0,1.19,0.7,2.37,2.55,2.37c3.92,0,7.66-4.66,7.66-12.32v-15c0-7.35,0-7.52,1.36-7.88
	c1.28-0.31,1.8-0.05,1.8-0.71c0-0.35-0.22-0.52-0.88-0.52c-0.53,0-1.27,0.17-3.43,0.17c-1.81,0-3.34-0.17-4.18-0.17
	c-0.62,0-1.01,0.17-1.01,0.48c0,0.61,0.26,0.57,1.8,0.75c1.19,0.13,1.63,0.35,1.63,2.25V168.44z M68.55,154.99
	c0,8.29,4.63,14.52,9.71,14.52c5.07,0,9.71-6.22,9.71-14.52c0-8.3-4.63-14.52-9.71-14.52C73.18,140.48,68.55,146.69,68.55,154.99z
	 M72.08,154.99c0-9.97,3.31-13.46,6.18-13.46c2.87,0,6.18,3.49,6.18,13.46c0,9.97-3.31,13.46-6.18,13.46
	C75.39,168.45,72.08,164.96,72.08,154.99z M103.14,152.87c0,0.44-0.04,0.57-0.35,0.57h-9.05c-0.31,0-0.4-0.17-0.4-0.49v-9.53
	c0-0.79,0.48-1.1,1.15-1.19c0.88-0.13,1.32-0.09,1.32-0.71c0-0.35-0.18-0.53-0.88-0.53c-0.79,0-1.81,0.18-3.09,0.18
	c-1.15,0-2.47-0.18-3.09-0.18c-0.79,0-0.88,0.26-0.88,0.53c0,0.57,0.4,0.31,1.9,0.71c0.49,0.13,0.66,0.44,0.66,1.55v22.02
	c0,1.24-0.18,1.59-2.03,1.99c-0.4,0.09-0.57,0.31-0.57,0.53c0,0.44,0.18,0.66,0.66,0.66c0.75,0,0.93-0.17,3.4-0.17
	c2.51,0,2.51,0.17,3.18,0.17c0.71,0,0.84-0.22,0.84-0.57c0-0.48-0.66-0.53-1.32-0.66c-0.71-0.13-1.24-0.57-1.24-1.85v-10.68
	c0-0.35,0.04-0.53,0.35-0.53h9.09c0.26,0,0.35,0.17,0.35,0.44v10.81c0,1.19-0.27,1.59-1.24,1.81c-1.06,0.22-1.28,0.31-1.28,0.62
	c0,0.48,0.22,0.62,1.19,0.62c0.62,0,0.84-0.17,2.82-0.17c1.68,0,2.51,0.17,3.18,0.17c0.57,0,0.71-0.17,0.71-0.48
	c0-0.53-0.88-0.4-1.72-0.75c-0.48-0.22-0.75-0.79-0.75-1.85v-22.81c0-0.4,0.36-0.75,0.93-0.84c0.97-0.13,1.68-0.31,1.68-0.84
	c0-0.22-0.13-0.4-0.66-0.4c-0.79,0-1.1,0.18-3.26,0.18c-1.68,0-2.29-0.18-3.18-0.18c-0.62,0-1.02,0.13-1.02,0.57
	c0,0.48,0.57,0.48,1.63,0.66c0.79,0.13,0.97,0.66,0.97,1.81V152.87z M128.28,144.58c0-1.46,0.27-2.16,1.28-2.34
	c1.06-0.17,1.5-0.17,1.5-0.71c0-0.4-0.13-0.53-0.71-0.53c-0.84,0-1.72,0.18-2.69,0.18c-1.98,0-2.6-0.18-3.09-0.18
	c-0.31,0-0.57,0.22-0.57,0.53c0,0.44,0.62,0.57,1.5,0.71c1.01,0.13,1.54,0.79,1.54,3.27v16.24c0,0.4-0.04,0.62-0.22,0.62
	c-0.18,0-0.35-0.17-4.02-7.19l-6.31-12.09c-0.53-1.06-0.71-1.9-1.37-1.94l-0.88-0.05c-0.66,0-2.16-0.09-3.04-0.09
	c-0.35,0-0.97,0.04-0.97,0.53c0,0.57,0.4,0.53,1.5,0.71c0.84,0.13,1.02,0.88,1.02,2.43v20.52c0,1.32-0.18,2.25-1.02,2.56
	c-0.48,0.18-1.9,0.27-1.9,0.79c0,0.27,0.13,0.44,0.49,0.44c0.71,0,1.32-0.17,3.53-0.17c2.47,0,2.56,0.17,3.09,0.17
	c0.4,0,0.66-0.09,0.66-0.44c0-0.75-1.01-0.53-2.25-0.79c-1.1-0.22-1.37-1.68-1.37-6v-15.53c0-0.84,0.09-0.97,0.31-0.97
	c0.44,0,0.4,0.71,6.35,11.69c6.71,12.35,6.62,12.84,7.15,12.84c0.48,0,0.48-0.04,0.48-1.28V144.58z M145.82,161.21
	c0-8.83-11.65-7.63-11.65-15.44c0-2.29,1.94-4.24,4.15-4.24c1.94,0,3.53,1.32,4.63,5.21c0.26,0.93,0.13,1.63,0.75,1.63
	c0.44,0,0.44-0.09,0.44-2.38c0-3.66,0-3.93-0.27-4.19c-0.57-0.58-3-1.32-4.85-1.32c-4.15,0-7.5,2.96-7.5,6.57
	c0,8.21,11.65,7.72,11.65,15.49c0,3.31-2.03,5.91-4.94,5.91c-2.6,0-4.54-1.94-5.65-7.37c-0.09-0.44-0.09-0.66-0.62-0.66
	c-0.49,0-0.62,0.09-0.62,3.18c0,3.97,0.18,4.41,0.79,4.81c0.93,0.57,2.69,1.1,5.16,1.1C142.29,169.51,145.82,166.24,145.82,161.21z
	 M170.05,152.87c0,0.44-0.05,0.57-0.36,0.57h-9.04c-0.31,0-0.4-0.17-0.4-0.49v-9.53c0-0.79,0.48-1.1,1.15-1.19
	c0.88-0.13,1.32-0.09,1.32-0.71c0-0.35-0.18-0.53-0.88-0.53c-0.79,0-1.81,0.18-3.09,0.18c-1.15,0-2.47-0.18-3.09-0.18
	c-0.79,0-0.88,0.26-0.88,0.53c0,0.57,0.4,0.31,1.9,0.71c0.48,0.13,0.66,0.44,0.66,1.55v22.02c0,1.24-0.18,1.59-2.03,1.99
	c-0.4,0.09-0.57,0.31-0.57,0.53c0,0.44,0.18,0.66,0.66,0.66c0.75,0,0.93-0.17,3.4-0.17c2.51,0,2.51,0.17,3.18,0.17
	c0.71,0,0.84-0.22,0.84-0.57c0-0.48-0.66-0.53-1.32-0.66c-0.71-0.13-1.23-0.57-1.23-1.85v-10.68c0-0.35,0.04-0.53,0.35-0.53h9.09
	c0.27,0,0.36,0.17,0.36,0.44v10.81c0,1.19-0.27,1.59-1.24,1.81c-1.06,0.22-1.28,0.31-1.28,0.62c0,0.48,0.22,0.62,1.19,0.62
	c0.62,0,0.84-0.17,2.82-0.17c1.67,0,2.51,0.17,3.18,0.17c0.57,0,0.71-0.17,0.71-0.48c0-0.53-0.88-0.4-1.72-0.75
	c-0.49-0.22-0.75-0.79-0.75-1.85v-22.81c0-0.4,0.35-0.75,0.93-0.84c0.97-0.13,1.68-0.31,1.68-0.84c0-0.22-0.13-0.4-0.66-0.4
	c-0.79,0-1.1,0.18-3.26,0.18c-1.68,0-2.3-0.18-3.18-0.18c-0.62,0-1.01,0.13-1.01,0.57c0,0.48,0.57,0.48,1.63,0.66
	c0.79,0.13,0.97,0.66,0.97,1.81V152.87z M175.6,154.99c0,8.29,4.63,14.52,9.7,14.52c5.08,0,9.71-6.22,9.71-14.52
	c0-8.3-4.63-14.52-9.71-14.52C180.23,140.48,175.6,146.69,175.6,154.99z M179.13,154.99c0-9.97,3.31-13.46,6.18-13.46
	c2.87,0,6.18,3.49,6.18,13.46c0,9.97-3.31,13.46-6.18,13.46C182.44,168.45,179.13,164.96,179.13,154.99z M197.56,165.93
	c0,1.15-0.26,1.72-1.06,1.81c-1.46,0.18-1.77,0.27-1.77,0.79c0,0.31,0.22,0.44,0.93,0.44c0.48,0,1.02-0.17,3.58-0.17
	c2.51,0,3.31,0.17,3.97,0.17c0.53,0,0.79-0.26,0.79-0.57c0-0.48-0.75-0.44-2.25-0.66c-0.93-0.13-1.28-0.79-1.28-2.25v-8.91
	c0-0.4,0.09-0.66,0.44-0.66c0.75,0,1.24,0.44,3.49,0.44c4.28,0,7.81-3,7.81-7.37c0-5.21-3.62-7.99-8.16-7.99
	c-1.59,0-3.4,0.18-5.03,0.18c-1.1,0-2.29-0.18-3.57-0.18c-0.62,0-0.71,0.26-0.71,0.57c0,0.48,0.27,0.48,1.63,0.66
	c0.79,0.09,1.19,0.62,1.19,2.12V165.93z M200.48,143.52c0-1.01,0.62-1.45,2.43-1.45c3.93,0,6.04,2.65,6.04,6.71
	c0,3.88-2.03,6.53-5.91,6.53c-1.9,0-2.56-1.02-2.56-1.72V143.52z M218.11,155.78c0-0.53,1.14-1.9,1.5-1.9c0.22,0,0.53,0.44,4.5,8.34
	c1.9,3.75,2.03,3.97,2.03,4.54c0,0.53-0.18,0.75-1.37,0.97c-1.06,0.18-1.19,0.31-1.19,0.62c0,0.44,0.26,0.62,1.1,0.62
	c0.44,0,0.88-0.17,3.31-0.17c1.9,0,2.21,0.17,3,0.17c0.71,0,0.89-0.31,0.89-0.57c0-0.53-0.67-0.44-1.19-0.66
	c-0.71-0.26-0.93-0.31-3-4.46c-5.51-11.07-6-11.52-6-11.96c0-0.31,0.09-0.62,3.31-4.63c2.43-2.91,4.01-4.41,5.03-4.63
	c0.88-0.18,1.28-0.05,1.28-0.57c0-0.31-0.22-0.48-0.93-0.48c-0.53,0-1.67,0.18-2.91,0.18c-1.06,0-2.38-0.18-3.13-0.18
	c-0.57,0-0.84,0.22-0.84,0.48c0,0.4,0.36,0.48,1.1,0.62c0.88,0.18,1.24,0.44,1.24,1.02c0,0.26-0.17,0.71-0.53,1.24
	c-1.46,2.21-4.72,6.22-6.22,8.03c-0.44,0.57-0.79,0.97-0.84,0.97c-0.09,0-0.13-0.13-0.13-1.41v-8.3c0-0.79,0.31-1.24,0.97-1.41
	c1.19-0.31,1.55-0.09,1.55-0.71c0-0.35-0.18-0.53-0.71-0.53c-0.58,0-1.5,0.18-3.09,0.18c-2.6,0-3.04-0.18-3.4-0.18
	c-0.44,0-0.71,0.22-0.71,0.48c0,0.57,0.58,0.48,1.63,0.75c0.66,0.18,0.84,0.53,0.84,2.12v20.96c0,1.98-0.22,2.16-1.63,2.43
	c-0.71,0.13-0.84,0.31-0.84,0.66c0,0.4,0.22,0.57,0.79,0.57c0.88,0,1.59-0.17,3.22-0.17c1.19,0,2.12,0.17,2.69,0.17
	c0.93,0,1.19-0.13,1.19-0.53c0-0.31-0.13-0.44-0.93-0.62c-1.41-0.31-1.59-0.57-1.59-2.65V155.78z M239.4,143.83
	c0-0.84,0.31-1.45,1.24-1.59c1.5-0.22,2.03-0.13,2.03-0.66c0-0.4-0.36-0.57-0.97-0.57c-0.97,0-2.38,0.18-3.75,0.18
	c-1.28,0-2.51-0.18-3.62-0.18c-0.71,0-0.93,0.26-0.93,0.53c0,0.66,0.4,0.48,1.86,0.71c0.88,0.13,1.24,0.4,1.24,1.59v21.84
	c0,1.55-0.13,1.77-1.46,2.07c-0.79,0.18-1.59,0.22-1.59,0.75c0,0.48,0.31,0.48,0.84,0.48c0.44,0,0.62-0.17,3.66-0.17
	c3.05,0,3.27,0.17,3.66,0.17c0.8,0,0.97-0.17,0.97-0.4c0-0.62-0.93-0.66-1.77-0.84c-1.19-0.26-1.41-1.06-1.41-2.29V143.83z
	 M262.09,144.58c0-1.46,0.27-2.16,1.28-2.34c1.06-0.17,1.5-0.17,1.5-0.71c0-0.4-0.13-0.53-0.71-0.53c-0.84,0-1.72,0.18-2.69,0.18
	c-1.98,0-2.6-0.18-3.09-0.18c-0.31,0-0.57,0.22-0.57,0.53c0,0.44,0.62,0.57,1.5,0.71c1.02,0.13,1.54,0.79,1.54,3.27v16.24
	c0,0.4-0.04,0.62-0.22,0.62c-0.18,0-0.36-0.17-4.02-7.19l-6.31-12.09c-0.53-1.06-0.71-1.9-1.37-1.94l-0.88-0.05
	c-0.66,0-2.16-0.09-3.04-0.09c-0.35,0-0.97,0.04-0.97,0.53c0,0.57,0.4,0.53,1.5,0.71c0.84,0.13,1.01,0.88,1.01,2.43v20.52
	c0,1.32-0.18,2.25-1.01,2.56c-0.48,0.18-1.9,0.27-1.9,0.79c0,0.27,0.13,0.44,0.48,0.44c0.71,0,1.32-0.17,3.53-0.17
	c2.47,0,2.56,0.17,3.09,0.17c0.4,0,0.66-0.09,0.66-0.44c0-0.75-1.01-0.53-2.25-0.79c-1.1-0.22-1.37-1.68-1.37-6v-15.53
	c0-0.84,0.09-0.97,0.31-0.97c0.44,0,0.4,0.71,6.35,11.69c6.71,12.35,6.62,12.84,7.15,12.84c0.48,0,0.48-0.04,0.48-1.28V144.58z
	 M279.26,161.21c0-8.83-11.65-7.63-11.65-15.44c0-2.29,1.94-4.24,4.15-4.24c1.94,0,3.53,1.32,4.63,5.21
	c0.26,0.93,0.13,1.63,0.75,1.63c0.44,0,0.44-0.09,0.44-2.38c0-3.66,0-3.93-0.27-4.19c-0.57-0.58-3-1.32-4.85-1.32
	c-4.15,0-7.5,2.96-7.5,6.57c0,8.21,11.65,7.72,11.65,15.49c0,3.31-2.03,5.91-4.94,5.91c-2.6,0-4.54-1.94-5.65-7.37
	c-0.09-0.44-0.09-0.66-0.62-0.66c-0.48,0-0.62,0.09-0.62,3.18c0,3.97,0.17,4.41,0.79,4.81c0.93,0.57,2.69,1.1,5.16,1.1
	C275.73,169.51,279.26,166.24,279.26,161.21z M105.96,212.79h-2.5v6.43v0.38c0,0.76-0.02,1.21-0.06,1.37
	c-0.05,0.2-0.14,0.35-0.26,0.45c-0.12,0.1-0.29,0.16-0.49,0.19c-0.2,0.03-0.46,0.05-0.77,0.05l0.38,2c0.3,0.06,0.6,0.08,0.9,0.08
	c0.82,0,1.43-0.17,1.84-0.52c0.41-0.35,0.68-0.78,0.79-1.29c0.12-0.52,0.18-1.14,0.18-1.88V212.79z M118.36,215.3
	c-0.2-0.52-0.49-0.97-0.88-1.36c-0.39-0.39-0.88-0.7-1.48-0.92c-0.6-0.23-1.28-0.34-2.05-0.34c-1.03,0-1.9,0.2-2.61,0.6
	c-0.71,0.4-1.24,0.92-1.58,1.57c-0.34,0.65-0.51,1.35-0.51,2.09c0,0.74,0.17,1.44,0.52,2.09c0.35,0.65,0.87,1.18,1.58,1.58
	c0.71,0.4,1.58,0.6,2.61,0.6c1.01,0,1.87-0.19,2.58-0.57c0.71-0.38,1.24-0.9,1.6-1.55c0.36-0.65,0.54-1.36,0.54-2.14
	C118.66,216.36,118.56,215.82,118.36,215.3z M115.86,218.04c-0.17,0.32-0.41,0.57-0.74,0.75c-0.32,0.18-0.71,0.27-1.17,0.27
	c-0.67,0-1.19-0.2-1.58-0.59c-0.39-0.39-0.58-0.91-0.58-1.54c0-0.64,0.19-1.15,0.57-1.54c0.38-0.39,0.91-0.59,1.58-0.59
	c0.35,0,0.66,0.05,0.93,0.16c0.27,0.11,0.49,0.25,0.68,0.44c0.19,0.19,0.32,0.41,0.42,0.67c0.09,0.26,0.14,0.54,0.14,0.85
	C116.11,217.35,116.03,217.72,115.86,218.04z M130.71,212.79h-2.5v3.05h-3.77v-3.05h-2.5v8.3h2.5v-3.24h3.77v3.24h2.5V212.79z
	 M143.52,212.79h-2.5v4.6l-4.3-4.6h-2.22v8.3h2.48v-4.62l4.31,4.62h2.23V212.79z M152.8,217.5c-0.22-0.31-0.52-0.59-0.9-0.83
	c-0.38-0.24-0.89-0.51-1.53-0.81c-0.36-0.17-0.61-0.32-0.75-0.44s-0.21-0.26-0.21-0.43c0-0.18,0.07-0.32,0.21-0.44
	s0.37-0.18,0.68-0.18c0.48,0,0.92,0.1,1.34,0.29c0.42,0.19,0.8,0.41,1.13,0.65v-1.95c-0.1-0.06-0.27-0.15-0.53-0.26
	c-0.26-0.11-0.58-0.21-0.97-0.3c-0.39-0.09-0.82-0.13-1.28-0.13c-0.65,0-1.2,0.11-1.65,0.32c-0.45,0.22-0.79,0.5-1.01,0.87
	c-0.22,0.36-0.33,0.77-0.33,1.21c0,0.46,0.11,0.87,0.33,1.2c0.22,0.34,0.5,0.62,0.84,0.85c0.34,0.23,0.74,0.43,1.2,0.63
	c0.41,0.16,0.72,0.32,0.94,0.48c0.22,0.15,0.32,0.34,0.32,0.57c0,0.12-0.06,0.26-0.19,0.4c-0.13,0.14-0.4,0.21-0.83,0.21
	c-0.46,0-0.9-0.09-1.3-0.26c-0.41-0.17-0.82-0.39-1.24-0.65v2.04c0.45,0.2,0.88,0.34,1.29,0.44c0.41,0.1,0.74,0.16,0.99,0.18
	c0.25,0.02,0.46,0.03,0.63,0.03c0.62,0,1.16-0.1,1.64-0.3c0.48-0.2,0.85-0.49,1.11-0.87c0.27-0.38,0.4-0.83,0.4-1.35
	C153.13,218.21,153.02,217.82,152.8,217.5z M170.68,212.79h-2.5v3.05h-3.77v-3.05h-2.5v8.3h2.5v-3.24h3.77v3.24h2.5V212.79z
	 M183.07,215.3c-0.2-0.52-0.49-0.97-0.88-1.36c-0.39-0.39-0.88-0.7-1.48-0.92c-0.6-0.23-1.28-0.34-2.05-0.34
	c-1.03,0-1.9,0.2-2.61,0.6c-0.71,0.4-1.24,0.92-1.58,1.57c-0.34,0.65-0.51,1.35-0.51,2.09c0,0.74,0.17,1.44,0.52,2.09
	c0.35,0.65,0.87,1.18,1.58,1.58c0.71,0.4,1.58,0.6,2.61,0.6c1.01,0,1.87-0.19,2.58-0.57c0.71-0.38,1.24-0.9,1.6-1.55
	c0.36-0.65,0.54-1.36,0.54-2.14C183.36,216.36,183.26,215.82,183.07,215.3z M180.56,218.04c-0.17,0.32-0.41,0.57-0.74,0.75
	c-0.32,0.18-0.71,0.27-1.17,0.27c-0.67,0-1.19-0.2-1.58-0.59c-0.39-0.39-0.58-0.91-0.58-1.54c0-0.64,0.19-1.15,0.57-1.54
	c0.38-0.39,0.91-0.59,1.58-0.59c0.35,0,0.66,0.05,0.93,0.16c0.27,0.11,0.49,0.25,0.68,0.44c0.19,0.19,0.32,0.41,0.42,0.67
	c0.09,0.26,0.14,0.54,0.14,0.85C180.81,217.35,180.73,217.72,180.56,218.04z M193.67,214.48c-0.11-0.3-0.28-0.58-0.51-0.83
	c-0.24-0.25-0.55-0.46-0.96-0.62c-0.4-0.16-0.87-0.24-1.42-0.24h-4.14v8.3h2.5v-3.12h1.64c0.54,0,1.02-0.08,1.42-0.24
	c0.4-0.16,0.72-0.36,0.96-0.62c0.24-0.25,0.41-0.53,0.51-0.82s0.16-0.59,0.16-0.9C193.83,215.09,193.77,214.78,193.67,214.48z
	 M191.13,216.01c-0.1,0.14-0.26,0.24-0.49,0.29c-0.22,0.05-0.54,0.08-0.96,0.08h-0.54v-2h0.53c0.6,0,1.02,0.07,1.25,0.22
	c0.23,0.15,0.35,0.42,0.35,0.81C191.28,215.67,191.23,215.87,191.13,216.01z M202.07,216.67l3.09-3.89h-2.72l-3.01,3.71v-3.71h-2.5
	v8.3h2.5v-3.89l3.17,3.89h3.06L202.07,216.67z M210.99,212.79h-2.5v8.3h2.5V212.79z M223.82,212.79h-2.5v4.6l-4.29-4.6h-2.22v8.3
	h2.48v-4.62l4.31,4.62h2.23V212.79z M233.1,217.5c-0.22-0.31-0.52-0.59-0.9-0.83c-0.38-0.24-0.89-0.51-1.53-0.81
	c-0.36-0.17-0.61-0.32-0.75-0.44s-0.21-0.26-0.21-0.43c0-0.18,0.07-0.32,0.21-0.44s0.37-0.18,0.68-0.18c0.48,0,0.92,0.1,1.34,0.29
	c0.42,0.19,0.8,0.41,1.13,0.65v-1.95c-0.1-0.06-0.27-0.15-0.53-0.26c-0.26-0.11-0.58-0.21-0.97-0.3c-0.39-0.09-0.82-0.13-1.29-0.13
	c-0.65,0-1.2,0.11-1.65,0.32c-0.45,0.22-0.79,0.5-1.01,0.87c-0.22,0.36-0.33,0.77-0.33,1.21c0,0.46,0.11,0.87,0.33,1.2
	c0.22,0.34,0.5,0.62,0.84,0.85c0.34,0.23,0.74,0.43,1.2,0.63c0.41,0.16,0.72,0.32,0.94,0.48c0.22,0.15,0.32,0.34,0.32,0.57
	c0,0.12-0.06,0.26-0.19,0.4c-0.13,0.14-0.4,0.21-0.83,0.21c-0.46,0-0.9-0.09-1.3-0.26c-0.41-0.17-0.82-0.39-1.24-0.65v2.04
	c0.45,0.2,0.88,0.34,1.29,0.44c0.41,0.1,0.74,0.16,0.99,0.18c0.25,0.02,0.46,0.03,0.63,0.03c0.62,0,1.16-0.1,1.64-0.3
	c0.48-0.2,0.85-0.49,1.11-0.87c0.27-0.38,0.4-0.83,0.4-1.35C233.43,218.21,233.32,217.82,233.1,217.5z M64.12,227.51h-2.77
	l-3.67,8.3h2.56l0.69-1.68h3.61l0.68,1.68h2.56L64.12,227.51z M61.52,232.68l1.23-3.03l1.22,3.03H61.52z M76.9,233.82h-3.8v-6.31
	h-2.5v8.3h6.31V233.82z M86.39,233.82h-3.8v-6.31h-2.5v8.3h6.31V233.82z M102.35,233.08c-0.26,0.16-0.51,0.31-0.76,0.43
	c-0.25,0.12-0.55,0.23-0.91,0.33c-0.36,0.1-0.74,0.15-1.14,0.15c-0.5,0-0.95-0.1-1.34-0.31c-0.4-0.21-0.71-0.48-0.93-0.83
	c-0.22-0.35-0.34-0.73-0.34-1.15c0-0.48,0.13-0.89,0.38-1.25c0.26-0.36,0.59-0.63,1.01-0.82c0.42-0.19,0.87-0.29,1.35-0.29
	c0.54,0,1.01,0.08,1.42,0.25c0.4,0.17,0.81,0.38,1.22,0.64v-2.21c-1.19-0.42-2.26-0.63-3.21-0.63c-0.63,0-1.23,0.08-1.8,0.25
	c-0.57,0.17-1.08,0.43-1.52,0.79c-0.44,0.36-0.79,0.8-1.04,1.34c-0.25,0.54-0.37,1.16-0.37,1.88c0,0.62,0.1,1.2,0.31,1.72
	c0.21,0.52,0.53,0.98,0.95,1.37c0.42,0.39,0.92,0.68,1.49,0.88c0.57,0.2,1.22,0.3,1.94,0.3c0.39,0,0.77-0.02,1.13-0.07
	c0.37-0.05,0.73-0.12,1.09-0.23c0.36-0.11,0.71-0.25,1.05-0.43V233.08z M114.52,227.51h-2.5v3.05h-3.77v-3.05h-2.5v8.3h2.5v-3.24
	h3.77v3.24h2.5V227.51z M120.84,227.51h-2.5v8.3h2.5V227.51z M130.96,233.82h-3.8v-6.31h-2.5v8.3h6.31V233.82z M142.48,230.46
	c-0.13-0.42-0.3-0.78-0.51-1.1c-0.21-0.32-0.46-0.59-0.75-0.82c-0.16-0.14-0.35-0.27-0.56-0.39c-0.21-0.12-0.46-0.23-0.75-0.33
	c-0.3-0.1-0.63-0.17-1-0.23c-0.37-0.05-0.81-0.08-1.33-0.08h-3.45v8.3h4.35h0.13c1.07,0,1.9-0.23,2.5-0.7
	c0.42-0.32,0.78-0.74,1.09-1.25c0.31-0.51,0.46-1.2,0.46-2.05C142.67,231.32,142.61,230.87,142.48,230.46z M139.41,233.62
	c-0.48,0.31-1.05,0.47-1.7,0.47h-1.07v-4.92h1.07c0.37,0,0.74,0.06,1.11,0.19c0.36,0.13,0.67,0.38,0.93,0.76
	c0.26,0.38,0.39,0.9,0.39,1.58C140.13,232.67,139.89,233.31,139.41,233.62z M153.14,234.01c-0.3-0.65-0.54-1.08-0.71-1.3
	c-0.17-0.21-0.39-0.4-0.66-0.55c0.22-0.12,0.43-0.25,0.61-0.38c0.18-0.13,0.35-0.34,0.51-0.63c0.16-0.29,0.24-0.64,0.24-1.06
	c0-0.36-0.1-0.74-0.29-1.14c-0.19-0.4-0.51-0.74-0.95-1.02c-0.44-0.28-1-0.42-1.69-0.42h-4.26v8.3h2.5v-3.24h0.28
	c0.29,0,0.52,0.03,0.7,0.1c0.18,0.07,0.37,0.23,0.56,0.48c0.19,0.25,0.41,0.64,0.65,1.18l0.65,1.47h2.69L153.14,234.01z
	 M150.23,230.9c-0.23,0.13-0.64,0.2-1.25,0.2h-0.54v-2h0.53c0.57,0,0.98,0.08,1.23,0.23c0.25,0.15,0.38,0.42,0.38,0.8
	C150.57,230.51,150.46,230.77,150.23,230.9z M163.09,234.14h-3.76v-1.77h3.49v-1.67h-3.49v-1.52h3.65v-1.67h-6.16v8.3h6.26V234.14z
	 M175.5,227.51H173v4.6l-4.3-4.6h-2.22v8.3h2.48v-4.62l4.31,4.62h2.23V227.51z M181.35,228.39c-0.11-0.29-0.28-0.53-0.52-0.72
	c-0.23-0.19-0.52-0.28-0.86-0.28c-0.24,0-0.45,0.06-0.65,0.17c-0.2,0.12-0.35,0.27-0.46,0.46c-0.11,0.19-0.17,0.4-0.17,0.61
	c0,0.61,0.31,1,0.94,1.18v0.13c0,0.82-0.31,1.35-0.94,1.59v0.38c0.49-0.07,0.91-0.19,1.28-0.37c0.37-0.18,0.66-0.4,0.89-0.65
	c0.23-0.25,0.39-0.52,0.5-0.8c0.11-0.28,0.16-0.56,0.16-0.82C181.51,228.98,181.46,228.69,181.35,228.39z M190.2,232.23
	c-0.22-0.31-0.52-0.59-0.9-0.83c-0.38-0.24-0.89-0.51-1.53-0.81c-0.36-0.17-0.61-0.32-0.75-0.44c-0.14-0.12-0.21-0.26-0.21-0.43
	c0-0.18,0.07-0.32,0.21-0.44c0.14-0.12,0.37-0.18,0.68-0.18c0.48,0,0.92,0.1,1.34,0.29c0.42,0.19,0.8,0.41,1.13,0.65v-1.95
	c-0.1-0.06-0.27-0.15-0.53-0.26c-0.26-0.11-0.58-0.21-0.97-0.3c-0.39-0.09-0.82-0.13-1.29-0.13c-0.65,0-1.2,0.11-1.65,0.32
	c-0.45,0.22-0.79,0.5-1.01,0.87c-0.22,0.36-0.33,0.77-0.33,1.21c0,0.46,0.11,0.87,0.33,1.2c0.22,0.34,0.5,0.62,0.84,0.85
	c0.34,0.23,0.74,0.43,1.2,0.63c0.41,0.16,0.72,0.32,0.94,0.48c0.22,0.15,0.32,0.34,0.32,0.57c0,0.12-0.06,0.26-0.19,0.4
	c-0.13,0.14-0.4,0.21-0.83,0.21c-0.46,0-0.9-0.09-1.3-0.26c-0.41-0.17-0.82-0.39-1.24-0.65v2.04c0.45,0.2,0.88,0.34,1.29,0.44
	c0.41,0.1,0.74,0.16,0.99,0.18c0.25,0.02,0.46,0.03,0.63,0.03c0.62,0,1.16-0.1,1.64-0.3c0.48-0.2,0.85-0.49,1.11-0.87
	c0.27-0.38,0.4-0.83,0.4-1.35C190.53,232.93,190.42,232.54,190.2,232.23z M208.08,227.51h-2.5v3.05h-3.77v-3.05h-2.5v8.3h2.5v-3.24
	h3.77v3.24h2.5V227.51z M220.46,230.02c-0.2-0.52-0.49-0.97-0.88-1.36c-0.39-0.39-0.88-0.7-1.48-0.92c-0.6-0.23-1.28-0.34-2.05-0.34
	c-1.03,0-1.9,0.2-2.61,0.6c-0.71,0.4-1.24,0.92-1.58,1.57c-0.34,0.65-0.51,1.35-0.51,2.09c0,0.74,0.17,1.44,0.52,2.09
	c0.35,0.65,0.87,1.18,1.58,1.58c0.71,0.4,1.58,0.6,2.61,0.6c1.01,0,1.87-0.19,2.58-0.57c0.71-0.38,1.24-0.9,1.6-1.55
	c0.36-0.65,0.54-1.36,0.54-2.14C220.76,231.08,220.66,230.54,220.46,230.02z M217.96,232.76c-0.17,0.32-0.41,0.57-0.74,0.75
	c-0.32,0.18-0.71,0.27-1.17,0.27c-0.67,0-1.19-0.2-1.58-0.59c-0.39-0.39-0.58-0.91-0.58-1.54c0-0.64,0.19-1.15,0.57-1.54
	c0.38-0.39,0.91-0.59,1.58-0.59c0.35,0,0.66,0.05,0.93,0.16c0.27,0.11,0.49,0.25,0.68,0.44c0.19,0.19,0.32,0.41,0.42,0.67
	c0.09,0.26,0.14,0.54,0.14,0.85C218.21,232.07,218.13,232.44,217.96,232.76z M229.51,232.23c-0.22-0.31-0.52-0.59-0.9-0.83
	c-0.38-0.24-0.89-0.51-1.53-0.81c-0.36-0.17-0.61-0.32-0.75-0.44c-0.14-0.12-0.21-0.26-0.21-0.43c0-0.18,0.07-0.32,0.21-0.44
	c0.14-0.12,0.37-0.18,0.68-0.18c0.48,0,0.92,0.1,1.34,0.29c0.42,0.19,0.8,0.41,1.13,0.65v-1.95c-0.1-0.06-0.27-0.15-0.53-0.26
	c-0.26-0.11-0.58-0.21-0.97-0.3c-0.39-0.09-0.82-0.13-1.29-0.13c-0.65,0-1.2,0.11-1.65,0.32c-0.45,0.22-0.79,0.5-1.01,0.87
	c-0.22,0.36-0.33,0.77-0.33,1.21c0,0.46,0.11,0.87,0.33,1.2c0.22,0.34,0.5,0.62,0.84,0.85c0.34,0.23,0.74,0.43,1.2,0.63
	c0.41,0.16,0.73,0.32,0.94,0.48c0.22,0.15,0.32,0.34,0.32,0.57c0,0.12-0.06,0.26-0.19,0.4c-0.13,0.14-0.4,0.21-0.83,0.21
	c-0.46,0-0.9-0.09-1.3-0.26c-0.41-0.17-0.82-0.39-1.24-0.65v2.04c0.45,0.2,0.88,0.34,1.29,0.44c0.41,0.1,0.74,0.16,0.99,0.18
	c0.25,0.02,0.46,0.03,0.63,0.03c0.62,0,1.16-0.1,1.64-0.3c0.48-0.2,0.85-0.49,1.11-0.87c0.27-0.38,0.4-0.83,0.4-1.35
	C229.84,232.93,229.73,232.54,229.51,232.23z M240.29,229.2c-0.11-0.3-0.28-0.58-0.51-0.83c-0.24-0.25-0.55-0.46-0.96-0.62
	c-0.4-0.16-0.87-0.24-1.42-0.24h-4.15v8.3h2.5v-3.12h1.64c0.54,0,1.02-0.08,1.42-0.24c0.4-0.16,0.72-0.36,0.96-0.62
	c0.24-0.25,0.41-0.53,0.51-0.82c0.11-0.29,0.16-0.59,0.16-0.9C240.45,229.81,240.4,229.5,240.29,229.2z M237.75,230.74
	c-0.1,0.14-0.26,0.24-0.49,0.29c-0.22,0.05-0.54,0.08-0.96,0.08h-0.54v-2h0.53c0.6,0,1.02,0.07,1.25,0.22
	c0.23,0.15,0.35,0.42,0.35,0.81C237.9,230.4,237.85,230.6,237.75,230.74z M246.07,227.51h-2.5v8.3h2.5V227.51z M257.85,227.51h-8.58
	v2.02h3.04v6.28h2.5v-6.28h3.04V227.51z M265.43,227.51h-2.77l-3.67,8.3h2.56l0.69-1.68h3.61l0.68,1.68h2.57L265.43,227.51z
	 M262.83,232.68l1.23-3.03l1.21,3.03H262.83z M278.22,233.82h-3.8v-6.31h-2.5v8.3h6.31V233.82z M141.62,267.87v-15.92H125.7v15.92
	H141.62z M175.8,267.87v-15.92h-15.92v15.92H175.8z M209.97,267.87v-15.92h-15.92v15.92H209.97z M73.27,267.87v-15.92H57.35v15.92
	H73.27z M107.45,267.87v-15.92H91.53v15.92H107.45z M244.15,267.87v-15.92h-15.92v15.92H244.15z M278.32,267.87v-15.92h-15.92v15.92
	H278.32z M140.52,113.58c18.09,6.79,37.63,6.47,54.97,0.01c-3.16-19.06-13.19-35.8-27.52-47.59
	C153.71,77.79,143.68,94.53,140.52,113.58z M160.63,95.25h4.04c-1.41,2.45-3.01,8.37-3.01,11.94c-0.66,0.19-1.13,1.32-0.94,2.07
	h-4.61c0-1.13-0.37-1.88-1.41-2.26C156.4,99.49,157.91,97.32,160.63,95.25z M165.71,95.25h1.3h1.86h1.3
	c2.54,4.98,2.91,9.31,2.72,11.85c-0.75,0.09-1.59,0.69-1.59,2.16h-2.66h-1.41h-2.67c0-1.47-0.84-2.07-1.59-2.16
	C162.8,104.56,163.17,100.24,165.71,95.25z M181.63,114.24h-27.28v-3.66h27.28V114.24z M181.23,107.01
	c-1.03,0.38-1.41,1.13-1.41,2.26h-4.61c0.19-0.75-0.28-1.88-0.94-2.07c0-3.57-1.6-9.5-3.01-11.94h4.04
	C178.04,97.32,179.54,99.49,181.23,107.01z M167.07,76.92c0.28-1.5,0.19-4.12,0.37-5.34c0.05-0.58,0.28-1.1,0.52-1.11c0,0,0,0,0,0h0
	c0,0,0,0,0,0c0.24,0.01,0.47,0.53,0.53,1.11c0.18,1.22,0.09,3.84,0.37,5.34c1.31,0.47,1.03,2.15,1.03,2.15s-0.6,0-1.33,0h-1.19
	c-0.73,0-1.33,0-1.33,0S165.76,77.39,167.07,76.92z M163.72,93c0.19-2.16-0.38-2.35,1.97-2.26c0-2.73,0-5.92,0-5.92
	c-2.35-0.94-1.79-3.76,0.19-4.14c0.09-0.09,0.09-0.66,0.19-0.66h1.12h1.56h1.12c0.09,0,0.09,0.57,0.19,0.66
	c1.97,0.38,2.54,3.2,0.19,4.14c0,0,0,3.2,0,5.92c2.35-0.09,1.79,0.1,1.97,2.26c0,0,0.85-0.1,1.23,0.09
	c0.56,0.28,0.66,0.85,0.94,1.32h-4.6h-3.62h-4.6c0.28-0.47,0.38-1.03,0.94-1.32C162.87,92.9,163.72,93,163.72,93z M205.81,119.57
	c-2.45-27.07-16.82-50.69-37.83-65.58h-0.01c-21.01,14.89-35.38,38.51-37.83,65.58l0,0l0,0.02c24.67,11.41,52.28,10.76,75.67,0.02
	L205.81,119.57z M131.8,118.63c2.34-25.88,16.09-48.48,36.17-62.72l0,10.09l0-10.09c20.15,14.24,33.9,36.84,36.24,62.72l-8.72-5.04
	l8.72,5.04C181.84,128.91,155.39,129.54,131.8,118.63z"/>
<path class="st0" d="M278.82,201.01c0.38,0,0.69,0.31,0.69,0.69s-0.31,0.69-0.69,0.69H57.02c-0.38,0-0.69-0.31-0.69-0.69
	s0.31-0.69,0.69-0.69H278.82z M106.64,185.38l-2.6-3h-1.76v8.09h2.02v-5.05l2.18,2.54h0.31l2.18-2.54v5.05h2.02v-8.09h-1.76
	L106.64,185.38z M128.73,188.98h-3.95v-1.95h3.69v-1.48h-3.69v-1.7h3.87v-1.48h-5.88v8.09h5.97V188.98z M140.22,182.38v8.09h3.34
	c3.23,0,4.7-1.71,4.7-4.03c0-2.22-1.52-4.06-4.47-4.06H140.22z M142.24,183.86h1.29c1.91,0,2.66,1.17,2.66,2.56
	c0,1.19-0.61,2.56-2.63,2.56h-1.32V183.86z M161.79,182.38h-2.02v8.09h2.02V182.38z M181.15,188c-1.16,0.56-1.87,0.89-2.93,0.89
	c-1.68,0-2.88-1.03-2.88-2.48c0-1.44,1.21-2.46,2.93-2.46c1,0,1.9,0.33,2.79,0.83v-1.8c-0.79-0.47-1.8-0.71-2.93-0.71
	c-3.09,0-4.86,2.02-4.86,4.17c0,2.09,1.56,4.13,4.71,4.13c1.2,0,2.05-0.23,3.18-0.81V188z M194.81,182.38h-2.02v8.09h2.02V182.38z
	 M214.82,182.38h-2.02v4.95l-4.32-4.95h-1.85v8.09h2.02v-5.18l4.47,5.18h1.7V182.38z M232.59,188.98h-3.95v-1.95h3.69v-1.48h-3.69
	v-1.7h3.86v-1.48h-5.88v8.09h5.96V188.98z M63.24,168.44c0,4.53-1.45,7.35-3.12,7.35c-1.19,0-0.44-2.55-2.46-2.55
	c-1.06,0-1.72,0.75-1.72,1.85c0,1.19,0.7,2.37,2.55,2.37c3.92,0,7.66-4.66,7.66-12.32v-15c0-7.35,0-7.52,1.36-7.88
	c1.28-0.31,1.8-0.05,1.8-0.71c0-0.35-0.22-0.52-0.88-0.52c-0.53,0-1.27,0.17-3.43,0.17c-1.81,0-3.34-0.17-4.18-0.17
	c-0.62,0-1.01,0.17-1.01,0.48c0,0.61,0.26,0.57,1.8,0.75c1.19,0.13,1.63,0.35,1.63,2.25V168.44z M68.55,154.99
	c0,8.29,4.63,14.52,9.71,14.52c5.07,0,9.71-6.22,9.71-14.52c0-8.3-4.63-14.52-9.71-14.52C73.18,140.48,68.55,146.69,68.55,154.99z
	 M72.08,154.99c0-9.97,3.31-13.46,6.18-13.46c2.87,0,6.18,3.49,6.18,13.46c0,9.97-3.31,13.46-6.18,13.46
	C75.39,168.45,72.08,164.96,72.08,154.99z M103.14,152.87c0,0.44-0.04,0.57-0.35,0.57h-9.05c-0.31,0-0.4-0.17-0.4-0.49v-9.53
	c0-0.79,0.48-1.1,1.15-1.19c0.88-0.13,1.32-0.09,1.32-0.71c0-0.35-0.18-0.53-0.88-0.53c-0.79,0-1.81,0.18-3.09,0.18
	c-1.15,0-2.47-0.18-3.09-0.18c-0.79,0-0.88,0.26-0.88,0.53c0,0.57,0.4,0.31,1.9,0.71c0.49,0.13,0.66,0.44,0.66,1.55v22.02
	c0,1.24-0.18,1.59-2.03,1.99c-0.4,0.09-0.57,0.31-0.57,0.53c0,0.44,0.18,0.66,0.66,0.66c0.75,0,0.93-0.17,3.4-0.17
	c2.51,0,2.51,0.17,3.18,0.17c0.71,0,0.84-0.22,0.84-0.57c0-0.48-0.66-0.53-1.32-0.66c-0.71-0.13-1.24-0.57-1.24-1.85v-10.68
	c0-0.35,0.04-0.53,0.35-0.53h9.09c0.26,0,0.35,0.17,0.35,0.44v10.81c0,1.19-0.27,1.59-1.24,1.81c-1.06,0.22-1.28,0.31-1.28,0.62
	c0,0.48,0.22,0.62,1.19,0.62c0.62,0,0.84-0.17,2.82-0.17c1.68,0,2.51,0.17,3.18,0.17c0.57,0,0.71-0.17,0.71-0.48
	c0-0.53-0.88-0.4-1.72-0.75c-0.48-0.22-0.75-0.79-0.75-1.85v-22.81c0-0.4,0.36-0.75,0.93-0.84c0.97-0.13,1.68-0.31,1.68-0.84
	c0-0.22-0.13-0.4-0.66-0.4c-0.79,0-1.1,0.18-3.26,0.18c-1.68,0-2.29-0.18-3.18-0.18c-0.62,0-1.02,0.13-1.02,0.57
	c0,0.48,0.57,0.48,1.63,0.66c0.79,0.13,0.97,0.66,0.97,1.81V152.87z M128.28,144.58c0-1.46,0.27-2.16,1.28-2.34
	c1.06-0.17,1.5-0.17,1.5-0.71c0-0.4-0.13-0.53-0.71-0.53c-0.84,0-1.72,0.18-2.69,0.18c-1.98,0-2.6-0.18-3.09-0.18
	c-0.31,0-0.57,0.22-0.57,0.53c0,0.44,0.62,0.57,1.5,0.71c1.01,0.13,1.54,0.79,1.54,3.27v16.24c0,0.4-0.04,0.62-0.22,0.62
	c-0.18,0-0.35-0.17-4.02-7.19l-6.31-12.09c-0.53-1.06-0.71-1.9-1.37-1.94l-0.88-0.05c-0.66,0-2.16-0.09-3.04-0.09
	c-0.35,0-0.97,0.04-0.97,0.53c0,0.57,0.4,0.53,1.5,0.71c0.84,0.13,1.02,0.88,1.02,2.43v20.52c0,1.32-0.18,2.25-1.02,2.56
	c-0.48,0.18-1.9,0.27-1.9,0.79c0,0.27,0.13,0.44,0.49,0.44c0.71,0,1.32-0.17,3.53-0.17c2.47,0,2.56,0.17,3.09,0.17
	c0.4,0,0.66-0.09,0.66-0.44c0-0.75-1.01-0.53-2.25-0.79c-1.1-0.22-1.37-1.68-1.37-6v-15.53c0-0.84,0.09-0.97,0.31-0.97
	c0.44,0,0.4,0.71,6.35,11.69c6.71,12.35,6.62,12.84,7.15,12.84c0.48,0,0.48-0.04,0.48-1.28V144.58z M145.82,161.21
	c0-8.83-11.65-7.63-11.65-15.44c0-2.29,1.94-4.24,4.15-4.24c1.94,0,3.53,1.32,4.63,5.21c0.26,0.93,0.13,1.63,0.75,1.63
	c0.44,0,0.44-0.09,0.44-2.38c0-3.66,0-3.93-0.27-4.19c-0.57-0.58-3-1.32-4.85-1.32c-4.15,0-7.5,2.96-7.5,6.57
	c0,8.21,11.65,7.72,11.65,15.49c0,3.31-2.03,5.91-4.94,5.91c-2.6,0-4.54-1.94-5.65-7.37c-0.09-0.44-0.09-0.66-0.62-0.66
	c-0.49,0-0.62,0.09-0.62,3.18c0,3.97,0.18,4.41,0.79,4.81c0.93,0.57,2.69,1.1,5.16,1.1C142.29,169.51,145.82,166.24,145.82,161.21z
	 M170.05,152.87c0,0.44-0.05,0.57-0.36,0.57h-9.04c-0.31,0-0.4-0.17-0.4-0.49v-9.53c0-0.79,0.48-1.1,1.15-1.19
	c0.88-0.13,1.32-0.09,1.32-0.71c0-0.35-0.18-0.53-0.88-0.53c-0.79,0-1.81,0.18-3.09,0.18c-1.15,0-2.47-0.18-3.09-0.18
	c-0.79,0-0.88,0.26-0.88,0.53c0,0.57,0.4,0.31,1.9,0.71c0.48,0.13,0.66,0.44,0.66,1.55v22.02c0,1.24-0.18,1.59-2.03,1.99
	c-0.4,0.09-0.57,0.31-0.57,0.53c0,0.44,0.18,0.66,0.66,0.66c0.75,0,0.93-0.17,3.4-0.17c2.51,0,2.51,0.17,3.18,0.17
	c0.71,0,0.84-0.22,0.84-0.57c0-0.48-0.66-0.53-1.32-0.66c-0.71-0.13-1.23-0.57-1.23-1.85v-10.68c0-0.35,0.04-0.53,0.35-0.53h9.09
	c0.27,0,0.36,0.17,0.36,0.44v10.81c0,1.19-0.27,1.59-1.24,1.81c-1.06,0.22-1.28,0.31-1.28,0.62c0,0.48,0.22,0.62,1.19,0.62
	c0.62,0,0.84-0.17,2.82-0.17c1.67,0,2.51,0.17,3.18,0.17c0.57,0,0.71-0.17,0.71-0.48c0-0.53-0.88-0.4-1.72-0.75
	c-0.49-0.22-0.75-0.79-0.75-1.85v-22.81c0-0.4,0.35-0.75,0.93-0.84c0.97-0.13,1.68-0.31,1.68-0.84c0-0.22-0.13-0.4-0.66-0.4
	c-0.79,0-1.1,0.18-3.26,0.18c-1.68,0-2.3-0.18-3.18-0.18c-0.62,0-1.01,0.13-1.01,0.57c0,0.48,0.57,0.48,1.63,0.66
	c0.79,0.13,0.97,0.66,0.97,1.81V152.87z M175.6,154.99c0,8.29,4.63,14.52,9.7,14.52c5.08,0,9.71-6.22,9.71-14.52
	c0-8.3-4.63-14.52-9.71-14.52C180.23,140.48,175.6,146.69,175.6,154.99z M179.13,154.99c0-9.97,3.31-13.46,6.18-13.46
	c2.87,0,6.18,3.49,6.18,13.46c0,9.97-3.31,13.46-6.18,13.46C182.44,168.45,179.13,164.96,179.13,154.99z M197.56,165.93
	c0,1.15-0.26,1.72-1.06,1.81c-1.46,0.18-1.77,0.27-1.77,0.79c0,0.31,0.22,0.44,0.93,0.44c0.48,0,1.02-0.17,3.58-0.17
	c2.51,0,3.31,0.17,3.97,0.17c0.53,0,0.79-0.26,0.79-0.57c0-0.48-0.75-0.44-2.25-0.66c-0.93-0.13-1.28-0.79-1.28-2.25v-8.91
	c0-0.4,0.09-0.66,0.44-0.66c0.75,0,1.24,0.44,3.49,0.44c4.28,0,7.81-3,7.81-7.37c0-5.21-3.62-7.99-8.16-7.99
	c-1.59,0-3.4,0.18-5.03,0.18c-1.1,0-2.29-0.18-3.57-0.18c-0.62,0-0.71,0.26-0.71,0.57c0,0.48,0.27,0.48,1.63,0.66
	c0.79,0.09,1.19,0.62,1.19,2.12V165.93z M200.48,143.52c0-1.01,0.62-1.45,2.43-1.45c3.93,0,6.04,2.65,6.04,6.71
	c0,3.88-2.03,6.53-5.91,6.53c-1.9,0-2.56-1.02-2.56-1.72V143.52z M218.11,155.78c0-0.53,1.14-1.9,1.5-1.9c0.22,0,0.53,0.44,4.5,8.34
	c1.9,3.75,2.03,3.97,2.03,4.54c0,0.53-0.18,0.75-1.37,0.97c-1.06,0.18-1.19,0.31-1.19,0.62c0,0.44,0.26,0.62,1.1,0.62
	c0.44,0,0.88-0.17,3.31-0.17c1.9,0,2.21,0.17,3,0.17c0.71,0,0.89-0.31,0.89-0.57c0-0.53-0.67-0.44-1.19-0.66
	c-0.71-0.26-0.93-0.31-3-4.46c-5.51-11.07-6-11.52-6-11.96c0-0.31,0.09-0.62,3.31-4.63c2.43-2.91,4.01-4.41,5.03-4.63
	c0.88-0.18,1.28-0.05,1.28-0.57c0-0.31-0.22-0.48-0.93-0.48c-0.53,0-1.67,0.18-2.91,0.18c-1.06,0-2.38-0.18-3.13-0.18
	c-0.57,0-0.84,0.22-0.84,0.48c0,0.4,0.36,0.48,1.1,0.62c0.88,0.18,1.24,0.44,1.24,1.02c0,0.26-0.17,0.71-0.53,1.24
	c-1.46,2.21-4.72,6.22-6.22,8.03c-0.44,0.57-0.79,0.97-0.84,0.97c-0.09,0-0.13-0.13-0.13-1.41v-8.3c0-0.79,0.31-1.24,0.97-1.41
	c1.19-0.31,1.55-0.09,1.55-0.71c0-0.35-0.18-0.53-0.71-0.53c-0.58,0-1.5,0.18-3.09,0.18c-2.6,0-3.04-0.18-3.4-0.18
	c-0.44,0-0.71,0.22-0.71,0.48c0,0.57,0.58,0.48,1.63,0.75c0.66,0.18,0.84,0.53,0.84,2.12v20.96c0,1.98-0.22,2.16-1.63,2.43
	c-0.71,0.13-0.84,0.31-0.84,0.66c0,0.4,0.22,0.57,0.79,0.57c0.88,0,1.59-0.17,3.22-0.17c1.19,0,2.12,0.17,2.69,0.17
	c0.93,0,1.19-0.13,1.19-0.53c0-0.31-0.13-0.44-0.93-0.62c-1.41-0.31-1.59-0.57-1.59-2.65V155.78z M239.4,143.83
	c0-0.84,0.31-1.45,1.24-1.59c1.5-0.22,2.03-0.13,2.03-0.66c0-0.4-0.36-0.57-0.97-0.57c-0.97,0-2.38,0.18-3.75,0.18
	c-1.28,0-2.51-0.18-3.62-0.18c-0.71,0-0.93,0.26-0.93,0.53c0,0.66,0.4,0.48,1.86,0.71c0.88,0.13,1.24,0.4,1.24,1.59v21.84
	c0,1.55-0.13,1.77-1.46,2.07c-0.79,0.18-1.59,0.22-1.59,0.75c0,0.48,0.31,0.48,0.84,0.48c0.44,0,0.62-0.17,3.66-0.17
	c3.05,0,3.27,0.17,3.66,0.17c0.8,0,0.97-0.17,0.97-0.4c0-0.62-0.93-0.66-1.77-0.84c-1.19-0.26-1.41-1.06-1.41-2.29V143.83z
	 M262.09,144.58c0-1.46,0.27-2.16,1.28-2.34c1.06-0.17,1.5-0.17,1.5-0.71c0-0.4-0.13-0.53-0.71-0.53c-0.84,0-1.72,0.18-2.69,0.18
	c-1.98,0-2.6-0.18-3.09-0.18c-0.31,0-0.57,0.22-0.57,0.53c0,0.44,0.62,0.57,1.5,0.71c1.02,0.13,1.54,0.79,1.54,3.27v16.24
	c0,0.4-0.04,0.62-0.22,0.62c-0.18,0-0.36-0.17-4.02-7.19l-6.31-12.09c-0.53-1.06-0.71-1.9-1.37-1.94l-0.88-0.05
	c-0.66,0-2.16-0.09-3.04-0.09c-0.35,0-0.97,0.04-0.97,0.53c0,0.57,0.4,0.53,1.5,0.71c0.84,0.13,1.01,0.88,1.01,2.43v20.52
	c0,1.32-0.18,2.25-1.01,2.56c-0.48,0.18-1.9,0.27-1.9,0.79c0,0.27,0.13,0.44,0.48,0.44c0.71,0,1.32-0.17,3.53-0.17
	c2.47,0,2.56,0.17,3.09,0.17c0.4,0,0.66-0.09,0.66-0.44c0-0.75-1.01-0.53-2.25-0.79c-1.1-0.22-1.37-1.68-1.37-6v-15.53
	c0-0.84,0.09-0.97,0.31-0.97c0.44,0,0.4,0.71,6.35,11.69c6.71,12.35,6.62,12.84,7.15,12.84c0.48,0,0.48-0.04,0.48-1.28V144.58z
	 M279.26,161.21c0-8.83-11.65-7.63-11.65-15.44c0-2.29,1.94-4.24,4.15-4.24c1.94,0,3.53,1.32,4.63,5.21
	c0.26,0.93,0.13,1.63,0.75,1.63c0.44,0,0.44-0.09,0.44-2.38c0-3.66,0-3.93-0.27-4.19c-0.57-0.58-3-1.32-4.85-1.32
	c-4.15,0-7.5,2.96-7.5,6.57c0,8.21,11.65,7.72,11.65,15.49c0,3.31-2.03,5.91-4.94,5.91c-2.6,0-4.54-1.94-5.65-7.37
	c-0.09-0.44-0.09-0.66-0.62-0.66c-0.48,0-0.62,0.09-0.62,3.18c0,3.97,0.17,4.41,0.79,4.81c0.93,0.57,2.69,1.1,5.16,1.1
	C275.73,169.51,279.26,166.24,279.26,161.21z M105.96,212.79h-2.5v6.43v0.38c0,0.76-0.02,1.21-0.06,1.37
	c-0.05,0.2-0.14,0.35-0.26,0.45c-0.12,0.1-0.29,0.16-0.49,0.19c-0.2,0.03-0.46,0.05-0.77,0.05l0.38,2c0.3,0.06,0.6,0.08,0.9,0.08
	c0.82,0,1.43-0.17,1.84-0.52c0.41-0.35,0.68-0.78,0.79-1.29c0.12-0.52,0.18-1.14,0.18-1.88V212.79z M118.36,215.3
	c-0.2-0.52-0.49-0.97-0.88-1.36c-0.39-0.39-0.88-0.7-1.48-0.92c-0.6-0.23-1.28-0.34-2.05-0.34c-1.03,0-1.9,0.2-2.61,0.6
	c-0.71,0.4-1.24,0.92-1.58,1.57c-0.34,0.65-0.51,1.35-0.51,2.09c0,0.74,0.17,1.44,0.52,2.09c0.35,0.65,0.87,1.18,1.58,1.58
	c0.71,0.4,1.58,0.6,2.61,0.6c1.01,0,1.87-0.19,2.58-0.57c0.71-0.38,1.24-0.9,1.6-1.55c0.36-0.65,0.54-1.36,0.54-2.14
	C118.66,216.36,118.56,215.82,118.36,215.3z M115.86,218.04c-0.17,0.32-0.41,0.57-0.74,0.75c-0.32,0.18-0.71,0.27-1.17,0.27
	c-0.67,0-1.19-0.2-1.58-0.59c-0.39-0.39-0.58-0.91-0.58-1.54c0-0.64,0.19-1.15,0.57-1.54c0.38-0.39,0.91-0.59,1.58-0.59
	c0.35,0,0.66,0.05,0.93,0.16c0.27,0.11,0.49,0.25,0.68,0.44c0.19,0.19,0.32,0.41,0.42,0.67c0.09,0.26,0.14,0.54,0.14,0.85
	C116.11,217.35,116.03,217.72,115.86,218.04z M130.71,212.79h-2.5v3.05h-3.77v-3.05h-2.5v8.3h2.5v-3.24h3.77v3.24h2.5V212.79z
	 M143.52,212.79h-2.5v4.6l-4.3-4.6h-2.22v8.3h2.48v-4.62l4.31,4.62h2.23V212.79z M152.8,217.5c-0.22-0.31-0.52-0.59-0.9-0.83
	c-0.38-0.24-0.89-0.51-1.53-0.81c-0.36-0.17-0.61-0.32-0.75-0.44s-0.21-0.26-0.21-0.43c0-0.18,0.07-0.32,0.21-0.44
	s0.37-0.18,0.68-0.18c0.48,0,0.92,0.1,1.34,0.29c0.42,0.19,0.8,0.41,1.13,0.65v-1.95c-0.1-0.06-0.27-0.15-0.53-0.26
	c-0.26-0.11-0.58-0.21-0.97-0.3c-0.39-0.09-0.82-0.13-1.28-0.13c-0.65,0-1.2,0.11-1.65,0.32c-0.45,0.22-0.79,0.5-1.01,0.87
	c-0.22,0.36-0.33,0.77-0.33,1.21c0,0.46,0.11,0.87,0.33,1.2c0.22,0.34,0.5,0.62,0.84,0.85c0.34,0.23,0.74,0.43,1.2,0.63
	c0.41,0.16,0.72,0.32,0.94,0.48c0.22,0.15,0.32,0.34,0.32,0.57c0,0.12-0.06,0.26-0.19,0.4c-0.13,0.14-0.4,0.21-0.83,0.21
	c-0.46,0-0.9-0.09-1.3-0.26c-0.41-0.17-0.82-0.39-1.24-0.65v2.04c0.45,0.2,0.88,0.34,1.29,0.44c0.41,0.1,0.74,0.16,0.99,0.18
	c0.25,0.02,0.46,0.03,0.63,0.03c0.62,0,1.16-0.1,1.64-0.3c0.48-0.2,0.85-0.49,1.11-0.87c0.27-0.38,0.4-0.83,0.4-1.35
	C153.13,218.21,153.02,217.82,152.8,217.5z M170.68,212.79h-2.5v3.05h-3.77v-3.05h-2.5v8.3h2.5v-3.24h3.77v3.24h2.5V212.79z
	 M183.07,215.3c-0.2-0.52-0.49-0.97-0.88-1.36c-0.39-0.39-0.88-0.7-1.48-0.92c-0.6-0.23-1.28-0.34-2.05-0.34
	c-1.03,0-1.9,0.2-2.61,0.6c-0.71,0.4-1.24,0.92-1.58,1.57c-0.34,0.65-0.51,1.35-0.51,2.09c0,0.74,0.17,1.44,0.52,2.09
	c0.35,0.65,0.87,1.18,1.58,1.58c0.71,0.4,1.58,0.6,2.61,0.6c1.01,0,1.87-0.19,2.58-0.57c0.71-0.38,1.24-0.9,1.6-1.55
	c0.36-0.65,0.54-1.36,0.54-2.14C183.36,216.36,183.26,215.82,183.07,215.3z M180.56,218.04c-0.17,0.32-0.41,0.57-0.74,0.75
	c-0.32,0.18-0.71,0.27-1.17,0.27c-0.67,0-1.19-0.2-1.58-0.59c-0.39-0.39-0.58-0.91-0.58-1.54c0-0.64,0.19-1.15,0.57-1.54
	c0.38-0.39,0.91-0.59,1.58-0.59c0.35,0,0.66,0.05,0.93,0.16c0.27,0.11,0.49,0.25,0.68,0.44c0.19,0.19,0.32,0.41,0.42,0.67
	c0.09,0.26,0.14,0.54,0.14,0.85C180.81,217.35,180.73,217.72,180.56,218.04z M193.67,214.48c-0.11-0.3-0.28-0.58-0.51-0.83
	c-0.24-0.25-0.55-0.46-0.96-0.62c-0.4-0.16-0.87-0.24-1.42-0.24h-4.14v8.3h2.5v-3.12h1.64c0.54,0,1.02-0.08,1.42-0.24
	c0.4-0.16,0.72-0.36,0.96-0.62c0.24-0.25,0.41-0.53,0.51-0.82s0.16-0.59,0.16-0.9C193.83,215.09,193.77,214.78,193.67,214.48z
	 M191.13,216.01c-0.1,0.14-0.26,0.24-0.49,0.29c-0.22,0.05-0.54,0.08-0.96,0.08h-0.54v-2h0.53c0.6,0,1.02,0.07,1.25,0.22
	c0.23,0.15,0.35,0.42,0.35,0.81C191.28,215.67,191.23,215.87,191.13,216.01z M202.07,216.67l3.09-3.89h-2.72l-3.01,3.71v-3.71h-2.5
	v8.3h2.5v-3.89l3.17,3.89h3.06L202.07,216.67z M210.99,212.79h-2.5v8.3h2.5V212.79z M223.82,212.79h-2.5v4.6l-4.29-4.6h-2.22v8.3
	h2.48v-4.62l4.31,4.62h2.23V212.79z M233.1,217.5c-0.22-0.31-0.52-0.59-0.9-0.83c-0.38-0.24-0.89-0.51-1.53-0.81
	c-0.36-0.17-0.61-0.32-0.75-0.44s-0.21-0.26-0.21-0.43c0-0.18,0.07-0.32,0.21-0.44s0.37-0.18,0.68-0.18c0.48,0,0.92,0.1,1.34,0.29
	c0.42,0.19,0.8,0.41,1.13,0.65v-1.95c-0.1-0.06-0.27-0.15-0.53-0.26c-0.26-0.11-0.58-0.21-0.97-0.3c-0.39-0.09-0.82-0.13-1.29-0.13
	c-0.65,0-1.2,0.11-1.65,0.32c-0.45,0.22-0.79,0.5-1.01,0.87c-0.22,0.36-0.33,0.77-0.33,1.21c0,0.46,0.11,0.87,0.33,1.2
	c0.22,0.34,0.5,0.62,0.84,0.85c0.34,0.23,0.74,0.43,1.2,0.63c0.41,0.16,0.72,0.32,0.94,0.48c0.22,0.15,0.32,0.34,0.32,0.57
	c0,0.12-0.06,0.26-0.19,0.4c-0.13,0.14-0.4,0.21-0.83,0.21c-0.46,0-0.9-0.09-1.3-0.26c-0.41-0.17-0.82-0.39-1.24-0.65v2.04
	c0.45,0.2,0.88,0.34,1.29,0.44c0.41,0.1,0.74,0.16,0.99,0.18c0.25,0.02,0.46,0.03,0.63,0.03c0.62,0,1.16-0.1,1.64-0.3
	c0.48-0.2,0.85-0.49,1.11-0.87c0.27-0.38,0.4-0.83,0.4-1.35C233.43,218.21,233.32,217.82,233.1,217.5z M64.12,227.51h-2.77
	l-3.67,8.3h2.56l0.69-1.68h3.61l0.68,1.68h2.56L64.12,227.51z M61.52,232.68l1.23-3.03l1.22,3.03H61.52z M76.9,233.82h-3.8v-6.31
	h-2.5v8.3h6.31V233.82z M86.39,233.82h-3.8v-6.31h-2.5v8.3h6.31V233.82z M102.35,233.08c-0.26,0.16-0.51,0.31-0.76,0.43
	c-0.25,0.12-0.55,0.23-0.91,0.33c-0.36,0.1-0.74,0.15-1.14,0.15c-0.5,0-0.95-0.1-1.34-0.31c-0.4-0.21-0.71-0.48-0.93-0.83
	c-0.22-0.35-0.34-0.73-0.34-1.15c0-0.48,0.13-0.89,0.38-1.25c0.26-0.36,0.59-0.63,1.01-0.82c0.42-0.19,0.87-0.29,1.35-0.29
	c0.54,0,1.01,0.08,1.42,0.25c0.4,0.17,0.81,0.38,1.22,0.64v-2.21c-1.19-0.42-2.26-0.63-3.21-0.63c-0.63,0-1.23,0.08-1.8,0.25
	c-0.57,0.17-1.08,0.43-1.52,0.79c-0.44,0.36-0.79,0.8-1.04,1.34c-0.25,0.54-0.37,1.16-0.37,1.88c0,0.62,0.1,1.2,0.31,1.72
	c0.21,0.52,0.53,0.98,0.95,1.37c0.42,0.39,0.92,0.68,1.49,0.88c0.57,0.2,1.22,0.3,1.94,0.3c0.39,0,0.77-0.02,1.13-0.07
	c0.37-0.05,0.73-0.12,1.09-0.23c0.36-0.11,0.71-0.25,1.05-0.43V233.08z M114.52,227.51h-2.5v3.05h-3.77v-3.05h-2.5v8.3h2.5v-3.24
	h3.77v3.24h2.5V227.51z M120.84,227.51h-2.5v8.3h2.5V227.51z M130.96,233.82h-3.8v-6.31h-2.5v8.3h6.31V233.82z M142.48,230.46
	c-0.13-0.42-0.3-0.78-0.51-1.1c-0.21-0.32-0.46-0.59-0.75-0.82c-0.16-0.14-0.35-0.27-0.56-0.39c-0.21-0.12-0.46-0.23-0.75-0.33
	c-0.3-0.1-0.63-0.17-1-0.23c-0.37-0.05-0.81-0.08-1.33-0.08h-3.45v8.3h4.35h0.13c1.07,0,1.9-0.23,2.5-0.7
	c0.42-0.32,0.78-0.74,1.09-1.25c0.31-0.51,0.46-1.2,0.46-2.05C142.67,231.32,142.61,230.87,142.48,230.46z M139.41,233.62
	c-0.48,0.31-1.05,0.47-1.7,0.47h-1.07v-4.92h1.07c0.37,0,0.74,0.06,1.11,0.19c0.36,0.13,0.67,0.38,0.93,0.76
	c0.26,0.38,0.39,0.9,0.39,1.58C140.13,232.67,139.89,233.31,139.41,233.62z M153.14,234.01c-0.3-0.65-0.54-1.08-0.71-1.3
	c-0.17-0.21-0.39-0.4-0.66-0.55c0.22-0.12,0.43-0.25,0.61-0.38c0.18-0.13,0.35-0.34,0.51-0.63c0.16-0.29,0.24-0.64,0.24-1.06
	c0-0.36-0.1-0.74-0.29-1.14c-0.19-0.4-0.51-0.74-0.95-1.02c-0.44-0.28-1-0.42-1.69-0.42h-4.26v8.3h2.5v-3.24h0.28
	c0.29,0,0.52,0.03,0.7,0.1c0.18,0.07,0.37,0.23,0.56,0.48c0.19,0.25,0.41,0.64,0.65,1.18l0.65,1.47h2.69L153.14,234.01z
	 M150.23,230.9c-0.23,0.13-0.64,0.2-1.25,0.2h-0.54v-2h0.53c0.57,0,0.98,0.08,1.23,0.23c0.25,0.15,0.38,0.42,0.38,0.8
	C150.57,230.51,150.46,230.77,150.23,230.9z M163.09,234.14h-3.76v-1.77h3.49v-1.67h-3.49v-1.52h3.65v-1.67h-6.16v8.3h6.26V234.14z
	 M175.5,227.51H173v4.6l-4.3-4.6h-2.22v8.3h2.48v-4.62l4.31,4.62h2.23V227.51z M181.35,228.39c-0.11-0.29-0.28-0.53-0.52-0.72
	c-0.23-0.19-0.52-0.28-0.86-0.28c-0.24,0-0.45,0.06-0.65,0.17c-0.2,0.12-0.35,0.27-0.46,0.46c-0.11,0.19-0.17,0.4-0.17,0.61
	c0,0.61,0.31,1,0.94,1.18v0.13c0,0.82-0.31,1.35-0.94,1.59v0.38c0.49-0.07,0.91-0.19,1.28-0.37c0.37-0.18,0.66-0.4,0.89-0.65
	c0.23-0.25,0.39-0.52,0.5-0.8c0.11-0.28,0.16-0.56,0.16-0.82C181.51,228.98,181.46,228.69,181.35,228.39z M190.2,232.23
	c-0.22-0.31-0.52-0.59-0.9-0.83c-0.38-0.24-0.89-0.51-1.53-0.81c-0.36-0.17-0.61-0.32-0.75-0.44c-0.14-0.12-0.21-0.26-0.21-0.43
	c0-0.18,0.07-0.32,0.21-0.44c0.14-0.12,0.37-0.18,0.68-0.18c0.48,0,0.92,0.1,1.34,0.29c0.42,0.19,0.8,0.41,1.13,0.65v-1.95
	c-0.1-0.06-0.27-0.15-0.53-0.26c-0.26-0.11-0.58-0.21-0.97-0.3c-0.39-0.09-0.82-0.13-1.29-0.13c-0.65,0-1.2,0.11-1.65,0.32
	c-0.45,0.22-0.79,0.5-1.01,0.87c-0.22,0.36-0.33,0.77-0.33,1.21c0,0.46,0.11,0.87,0.33,1.2c0.22,0.34,0.5,0.62,0.84,0.85
	c0.34,0.23,0.74,0.43,1.2,0.63c0.41,0.16,0.72,0.32,0.94,0.48c0.22,0.15,0.32,0.34,0.32,0.57c0,0.12-0.06,0.26-0.19,0.4
	c-0.13,0.14-0.4,0.21-0.83,0.21c-0.46,0-0.9-0.09-1.3-0.26c-0.41-0.17-0.82-0.39-1.24-0.65v2.04c0.45,0.2,0.88,0.34,1.29,0.44
	c0.41,0.1,0.74,0.16,0.99,0.18c0.25,0.02,0.46,0.03,0.63,0.03c0.62,0,1.16-0.1,1.64-0.3c0.48-0.2,0.85-0.49,1.11-0.87
	c0.27-0.38,0.4-0.83,0.4-1.35C190.53,232.93,190.42,232.54,190.2,232.23z M208.08,227.51h-2.5v3.05h-3.77v-3.05h-2.5v8.3h2.5v-3.24
	h3.77v3.24h2.5V227.51z M220.46,230.02c-0.2-0.52-0.49-0.97-0.88-1.36c-0.39-0.39-0.88-0.7-1.48-0.92c-0.6-0.23-1.28-0.34-2.05-0.34
	c-1.03,0-1.9,0.2-2.61,0.6c-0.71,0.4-1.24,0.92-1.58,1.57c-0.34,0.65-0.51,1.35-0.51,2.09c0,0.74,0.17,1.44,0.52,2.09
	c0.35,0.65,0.87,1.18,1.58,1.58c0.71,0.4,1.58,0.6,2.61,0.6c1.01,0,1.87-0.19,2.58-0.57c0.71-0.38,1.24-0.9,1.6-1.55
	c0.36-0.65,0.54-1.36,0.54-2.14C220.76,231.08,220.66,230.54,220.46,230.02z M217.96,232.76c-0.17,0.32-0.41,0.57-0.74,0.75
	c-0.32,0.18-0.71,0.27-1.17,0.27c-0.67,0-1.19-0.2-1.58-0.59c-0.39-0.39-0.58-0.91-0.58-1.54c0-0.64,0.19-1.15,0.57-1.54
	c0.38-0.39,0.91-0.59,1.58-0.59c0.35,0,0.66,0.05,0.93,0.16c0.27,0.11,0.49,0.25,0.68,0.44c0.19,0.19,0.32,0.41,0.42,0.67
	c0.09,0.26,0.14,0.54,0.14,0.85C218.21,232.07,218.13,232.44,217.96,232.76z M229.51,232.23c-0.22-0.31-0.52-0.59-0.9-0.83
	c-0.38-0.24-0.89-0.51-1.53-0.81c-0.36-0.17-0.61-0.32-0.75-0.44c-0.14-0.12-0.21-0.26-0.21-0.43c0-0.18,0.07-0.32,0.21-0.44
	c0.14-0.12,0.37-0.18,0.68-0.18c0.48,0,0.92,0.1,1.34,0.29c0.42,0.19,0.8,0.41,1.13,0.65v-1.95c-0.1-0.06-0.27-0.15-0.53-0.26
	c-0.26-0.11-0.58-0.21-0.97-0.3c-0.39-0.09-0.82-0.13-1.29-0.13c-0.65,0-1.2,0.11-1.65,0.32c-0.45,0.22-0.79,0.5-1.01,0.87
	c-0.22,0.36-0.33,0.77-0.33,1.21c0,0.46,0.11,0.87,0.33,1.2c0.22,0.34,0.5,0.62,0.84,0.85c0.34,0.23,0.74,0.43,1.2,0.63
	c0.41,0.16,0.73,0.32,0.94,0.48c0.22,0.15,0.32,0.34,0.32,0.57c0,0.12-0.06,0.26-0.19,0.4c-0.13,0.14-0.4,0.21-0.83,0.21
	c-0.46,0-0.9-0.09-1.3-0.26c-0.41-0.17-0.82-0.39-1.24-0.65v2.04c0.45,0.2,0.88,0.34,1.29,0.44c0.41,0.1,0.74,0.16,0.99,0.18
	c0.25,0.02,0.46,0.03,0.63,0.03c0.62,0,1.16-0.1,1.64-0.3c0.48-0.2,0.85-0.49,1.11-0.87c0.27-0.38,0.4-0.83,0.4-1.35
	C229.84,232.93,229.73,232.54,229.51,232.23z M240.29,229.2c-0.11-0.3-0.28-0.58-0.51-0.83c-0.24-0.25-0.55-0.46-0.96-0.62
	c-0.4-0.16-0.87-0.24-1.42-0.24h-4.15v8.3h2.5v-3.12h1.64c0.54,0,1.02-0.08,1.42-0.24c0.4-0.16,0.72-0.36,0.96-0.62
	c0.24-0.25,0.41-0.53,0.51-0.82c0.11-0.29,0.16-0.59,0.16-0.9C240.45,229.81,240.4,229.5,240.29,229.2z M237.75,230.74
	c-0.1,0.14-0.26,0.24-0.49,0.29c-0.22,0.05-0.54,0.08-0.96,0.08h-0.54v-2h0.53c0.6,0,1.02,0.07,1.25,0.22
	c0.23,0.15,0.35,0.42,0.35,0.81C237.9,230.4,237.85,230.6,237.75,230.74z M246.07,227.51h-2.5v8.3h2.5V227.51z M257.85,227.51h-8.58
	v2.02h3.04v6.28h2.5v-6.28h3.04V227.51z M265.43,227.51h-2.77l-3.67,8.3h2.56l0.69-1.68h3.61l0.68,1.68h2.57L265.43,227.51z
	 M262.83,232.68l1.23-3.03l1.21,3.03H262.83z M278.22,233.82h-3.8v-6.31h-2.5v8.3h6.31V233.82z M141.62,267.87v-15.92H125.7v15.92
	H141.62z M175.8,267.87v-15.92h-15.92v15.92H175.8z M209.97,267.87v-15.92h-15.92v15.92H209.97z M73.27,267.87v-15.92H57.35v15.92
	H73.27z M107.45,267.87v-15.92H91.53v15.92H107.45z M244.15,267.87v-15.92h-15.92v15.92H244.15z M278.32,267.87v-15.92h-15.92v15.92
	H278.32z M140.52,113.58c18.09,6.79,37.63,6.47,54.97,0.01c-3.16-19.06-13.19-35.8-27.52-47.59
	C153.71,77.79,143.68,94.53,140.52,113.58z M160.63,95.25h4.04c-1.41,2.45-3.01,8.37-3.01,11.94c-0.66,0.19-1.13,1.32-0.94,2.07
	h-4.61c0-1.13-0.37-1.88-1.41-2.26C156.4,99.49,157.91,97.32,160.63,95.25z M165.71,95.25h1.3h1.86h1.3
	c2.54,4.98,2.91,9.31,2.72,11.85c-0.75,0.09-1.59,0.69-1.59,2.16h-2.66h-1.41h-2.67c0-1.47-0.84-2.07-1.59-2.16
	C162.8,104.56,163.17,100.24,165.71,95.25z M181.63,114.24h-27.28v-3.66h27.28V114.24z M181.23,107.01
	c-1.03,0.38-1.41,1.13-1.41,2.26h-4.61c0.19-0.75-0.28-1.88-0.94-2.07c0-3.57-1.6-9.5-3.01-11.94h4.04
	C178.04,97.32,179.54,99.49,181.23,107.01z M167.07,76.92c0.28-1.5,0.19-4.12,0.37-5.34c0.05-0.58,0.28-1.1,0.52-1.11c0,0,0,0,0,0h0
	c0,0,0,0,0,0c0.24,0.01,0.47,0.53,0.53,1.11c0.18,1.22,0.09,3.84,0.37,5.34c1.31,0.47,1.03,2.15,1.03,2.15s-0.6,0-1.33,0h-1.19
	c-0.73,0-1.33,0-1.33,0S165.76,77.39,167.07,76.92z M163.72,93c0.19-2.16-0.38-2.35,1.97-2.26c0-2.73,0-5.92,0-5.92
	c-2.35-0.94-1.79-3.76,0.19-4.14c0.09-0.09,0.09-0.66,0.19-0.66h1.12h1.56h1.12c0.09,0,0.09,0.57,0.19,0.66
	c1.97,0.38,2.54,3.2,0.19,4.14c0,0,0,3.2,0,5.92c2.35-0.09,1.79,0.1,1.97,2.26c0,0,0.85-0.1,1.23,0.09
	c0.56,0.28,0.66,0.85,0.94,1.32h-4.6h-3.62h-4.6c0.28-0.47,0.38-1.03,0.94-1.32C162.87,92.9,163.72,93,163.72,93z M205.81,119.57
	c-2.45-27.07-16.82-50.69-37.83-65.58h-0.01c-21.01,14.89-35.38,38.51-37.83,65.58l0,0l0,0.02c24.67,11.41,52.28,10.76,75.67,0.02
	L205.81,119.57z M131.8,118.63c2.34-25.88,16.09-48.48,36.17-62.72l0,10.09l0-10.09c20.15,14.24,33.9,36.84,36.24,62.72l-8.72-5.04
	l8.72,5.04C181.84,128.91,155.39,129.54,131.8,118.63z"/>
</svg>
