<svg id="Layer_1" data-name="Layer 1" xmlns="http://www.w3.org/2000/svg" viewBox="0 0 800 800"><defs><style>.cls-1{fill:#0aace4;}</style></defs><title>JHAC.Icons</title><path class="cls-1" d="M637.91,409.44C522,384.89,463,317.27,434.68,284.76c-14.59-16.72-23.4-26.82-37.74-26.82a27.83,27.83,0,0,0-8.87,1.6A30.72,30.72,0,0,0,368.88,281c-4.33,16.66,4.48,28.63,10.31,36.56,3.37,4.58,7.18,9.76,9.44,15.61a32.21,32.21,0,0,1,1.56,5c-3.95,2.94-19.89,11.29-73.82,11.29-13.47,0-22.76-17-32.67-37.65-7.46-15.49-15.91-33.06-34.79-33.07h0c-7.43,0-21.14,3.25-29.46,25-.24.65-.47,1.31-.67,2-2,6.54-48.48,160.71-13.65,214.77,8.95,13.9,22.39,21.55,37.83,21.55H638.72c37,0,63.84-27.24,63.84-64.78,0-24.7-11.22-56.51-64.65-67.84Zm.81,104.22H242.94c-51.07,0-11.23-162,0-198.79,2.07-5.42,4-7.72,5.95-7.72,10.88,0,22.87,70.72,67.48,70.72,95.75,0,107.7-24.85,95.73-55.9-8.34-21.65-25.53-32-16-35.5a2.36,2.36,0,0,1,.8-.14c7.72,0,28.25,33.85,71.12,70.47l-17.11,19a15.35,15.35,0,0,0,0,20.07,11.87,11.87,0,0,0,18.05,0l20.08-22.32c7.79,5.72,16.32,11.35,25.33,16.87l-25.17,28a15.35,15.35,0,0,0,0,20.07,11.87,11.87,0,0,0,18.05,0l31.14-34.63a377.86,377.86,0,0,0,94.69,33.47C659.74,443,677,453.74,677,477.27s-17.14,36.39-38.29,36.39Zm0,0"/><path class="cls-1" d="M452.93,472.57l-51.07-28.4a11.68,11.68,0,0,0-5.71-1.5H242.94c-7.06,0-12.77,6.35-12.77,14.2s5.71,14.2,12.77,14.2H393.12L441.5,498a11.69,11.69,0,0,0,5.69,1.49,12.7,12.7,0,0,0,11.44-7.86c3.16-7,.6-15.54-5.7-19Zm0,0"/></svg>