<svg id="Layer_1" data-name="Layer 1" xmlns="http://www.w3.org/2000/svg" viewBox="0 0 800 800"><defs><style>.cls-1{fill:#0aace4;stroke:#0aace4;stroke-miterlimit:10;stroke-width:14.48px;}</style></defs><title>JHAC.Icons</title><path class="cls-1" d="M438.4,321.08a9.49,9.49,0,0,0-6.8-2.22H394.51l34.89-41,3.26-3.82,1.68-2.22a12.4,12.4,0,0,0,1.41-2.79,9.56,9.56,0,0,0,.62-3.35A7.07,7.07,0,0,0,433.1,259a18.85,18.85,0,0,0-9.27-1.86H380.48A9.2,9.2,0,0,0,374,259.2a7.06,7.06,0,0,0-2.29,5.48q0,4.74,3,5.76a27,27,0,0,0,8.83,1.11h28.26c-1.17,1.74-2.71,3.78-4.59,6.14L400,286.24l-9.81,11.15L378.8,310.68q-5.93,7-7.78,9.29a9.07,9.07,0,0,0,.8,12,11.57,11.57,0,0,0,8.12,2.51h51.58a9.72,9.72,0,0,0,6.88-2.14,7.23,7.23,0,0,0,2.3-5.48,7.7,7.7,0,0,0-2.3-5.77Zm0,0"/><path class="cls-1" d="M516.55,368.57a7.53,7.53,0,0,0-5.47-1.77H481.41l27.81-32.7,2.65-3.07,1.68-2.14a10.23,10.23,0,0,0,1.15-2.23,8,8,0,0,0,.53-2.7,5.65,5.65,0,0,0-2.56-5.38,15,15,0,0,0-7.42-1.49h-35a7.44,7.44,0,0,0-5.12,1.67,5.65,5.65,0,0,0-1.86,4.37q0,3.72,2.39,4.64a21.14,21.14,0,0,0,7.07.84h22.6a53.08,53.08,0,0,1-3.71,4.93l-5.83,6.87-7.59,9.3L469.4,360.3q-4.77,5.58-6.27,7.62a7.22,7.22,0,0,0,.62,9.29,9.1,9.1,0,0,0,6.44,2h41a7.72,7.72,0,0,0,5.47-1.67,5.78,5.78,0,0,0,1.77-4.36,6.11,6.11,0,0,0-1.86-4.56Zm0,0"/><path class="cls-1" d="M609.19,316.35a9.51,9.51,0,0,0-6.8-2.24H565l34.88-41,3.26-3.81,2.12-2.7a12.43,12.43,0,0,0,1.42-2.79,9.5,9.5,0,0,0,.61-3.34,7.08,7.08,0,0,0-3.26-6.69,18.78,18.78,0,0,0-9.28-1.86H551a9.2,9.2,0,0,0-6.45,2,7.07,7.07,0,0,0-2.3,5.49c0,3.16,1,5.07,3,5.76a27,27,0,0,0,8.83,1.11h28.27q-1.77,2.61-4.6,6.13l-7.33,8.74-9.53,11.15L549.5,305.66q-5.93,7-7.78,9.29a9.07,9.07,0,0,0,.8,12,11.56,11.56,0,0,0,8.12,2.51h51.48a9.67,9.67,0,0,0,7.07-1.86,7.2,7.2,0,0,0,2.29-5.48,7.61,7.61,0,0,0-2.29-5.76Zm0,0"/><path class="cls-1" d="M578.73,472.84A8.52,8.52,0,0,0,569,470.7c-95.71,41.7-205.42-6.15-245-106.87a206.83,206.83,0,0,1,3.34-159,9.5,9.5,0,0,0-4.21-12.37,8.43,8.43,0,0,0-7.18-.17C211,237.65,160.87,363.94,204,474.35S367.08,637.52,472,592.16c47.86-20.69,86.54-59.62,108.3-109a9.66,9.66,0,0,0-1.58-10.31ZM394.07,589.93c-103.74,0-187.81-88.53-187.8-197.69,0-71.68,36.9-137.74,96.4-172.63a223.68,223.68,0,0,0-10.6,68.3c0,119.43,92,216.24,205.51,216.23a195.88,195.88,0,0,0,56.24-8.26c-34.25,58.27-94.64,93.83-159.75,94Zm0,0"/></svg>